<?xml version="1.0" encoding="UTF-8"?>
<svg version="1.1" xmlns="http://www.w3.org/2000/svg" width="737" height="596">
<path d="M0 0 C1.26115631 0.00007553 2.52231262 0.00015106 3.82168579 0.00022888 C5.20322712 0.0053359 6.58476806 0.0105519 7.96630859 0.01586914 C9.37592519 0.01773395 10.78554244 0.01915756 12.19515991 0.02015686 C15.90728542 0.02397706 19.61937187 0.03380311 23.33148193 0.04486084 C27.11860628 0.05508564 30.90573693 0.05965677 34.69287109 0.06469727 C42.12518058 0.07542581 49.55745786 0.09249628 56.98974609 0.11352539 C56.98974609 1.76352539 56.98974609 3.41352539 56.98974609 5.11352539 C56.32974609 5.11352539 55.66974609 5.11352539 54.98974609 5.11352539 C54.65974609 7.42352539 54.32974609 9.73352539 53.98974609 12.11352539 C53.32974609 12.11352539 52.66974609 12.11352539 51.98974609 12.11352539 C52.03615234 12.83282227 52.08255859 13.55211914 52.13037109 14.29321289 C51.97066453 17.49621666 51.15810074 19.37618319 49.73974609 22.23852539 C47.11138458 27.75511468 45.01893571 33.35548307 42.98974609 39.11352539 C42.0008134 41.7844889 40.99531607 44.44876495 39.98974609 47.11352539 C39.32974609 47.11352539 38.66974609 47.11352539 37.98974609 47.11352539 C37.92787109 48.20665039 37.86599609 49.29977539 37.80224609 50.42602539 C37.22135378 55.04896005 35.47655995 58.71560572 33.46630859 62.88305664 C31.6795005 66.79229023 30.16786184 70.77141939 28.67724609 74.80102539 C28.41081299 75.5209668 28.14437988 76.2409082 27.86987305 76.98266602 C27.24010539 78.69182856 26.61446967 80.40251271 25.98974609 82.11352539 C25.32974609 82.11352539 24.66974609 82.11352539 23.98974609 82.11352539 C23.65974609 84.75352539 23.32974609 87.39352539 22.98974609 90.11352539 C22.32974609 90.11352539 21.66974609 90.11352539 20.98974609 90.11352539 C20.92787109 91.02102539 20.86599609 91.92852539 20.80224609 92.86352539 C20.13858481 97.56603966 18.1983795 101.66402005 16.31787109 105.99243164 C15.07992212 108.90161172 13.98053339 111.8208911 12.92724609 114.80102539 C11.73705302 118.14216981 10.46252755 121.38715979 8.98974609 124.61352539 C5.38068288 132.53931128 2.68584571 140.84140157 -0.01025391 149.11352539 C-0.67025391 149.11352539 -1.33025391 149.11352539 -2.01025391 149.11352539 C-2.34025391 151.42352539 -2.67025391 153.73352539 -3.01025391 156.11352539 C-3.67025391 156.11352539 -4.33025391 156.11352539 -5.01025391 156.11352539 C-5.07212891 157.18602539 -5.13400391 158.25852539 -5.19775391 159.36352539 C-5.94179578 165.36900624 -8.54512146 170.64266128 -11.01025391 176.11352539 C-11.73960589 177.73844222 -12.46879196 179.36343354 -13.19775391 180.98852539 C-13.51615234 181.6962207 -13.83455078 182.40391602 -14.16259766 183.13305664 C-15.27939737 185.74235367 -16.17597023 188.40210345 -17.01025391 191.11352539 C-17.67025391 191.11352539 -18.33025391 191.11352539 -19.01025391 191.11352539 C-19.34025391 193.75352539 -19.67025391 196.39352539 -20.01025391 199.11352539 C-20.67025391 199.11352539 -21.33025391 199.11352539 -22.01025391 199.11352539 C-22.09275391 200.08290039 -22.17525391 201.05227539 -22.26025391 202.05102539 C-22.93224144 206.80293721 -24.96174707 210.81703166 -27.01025391 215.11352539 C-28.65265306 218.79249948 -30.145481 222.43889155 -31.38134766 226.26977539 C-33.18115491 231.71963831 -35.28512398 237.03197588 -37.40478516 242.36352539 C-39.45270878 247.56001881 -41.29495861 252.7979949 -43.01025391 258.11352539 C-43.67025391 258.11352539 -44.33025391 258.11352539 -45.01025391 258.11352539 C-45.07212891 259.02102539 -45.13400391 259.92852539 -45.19775391 260.86352539 C-45.86141519 265.56603966 -47.8016205 269.66402005 -49.68212891 273.99243164 C-50.92007788 276.90161172 -52.01946661 279.8208911 -53.07275391 282.80102539 C-54.57323543 287.02189212 -56.27589263 291.08610195 -58.17822266 295.14086914 C-59.01039825 297.11386761 -59.54788052 299.0258395 -60.01025391 301.11352539 C-60.67025391 301.11352539 -61.33025391 301.11352539 -62.01025391 301.11352539 C-62.34025391 303.42352539 -62.67025391 305.73352539 -63.01025391 308.11352539 C-63.67025391 308.11352539 -64.33025391 308.11352539 -65.01025391 308.11352539 C-65.09275391 309.06227539 -65.17525391 310.01102539 -65.26025391 310.98852539 C-65.84416469 315.04346139 -67.25794831 318.54281968 -68.83837891 322.30493164 C-70.131685 325.40455524 -71.32255797 328.53449634 -72.51025391 331.67602539 C-73.93943783 335.41288243 -75.41235927 339.0986799 -77.07275391 342.73852539 C-80.65430614 350.62371699 -83.32912894 358.88734651 -86.01025391 367.11352539 C-86.67025391 367.11352539 -87.33025391 367.11352539 -88.01025391 367.11352539 C-88.34025391 369.42352539 -88.67025391 371.73352539 -89.01025391 374.11352539 C-89.67025391 374.11352539 -90.33025391 374.11352539 -91.01025391 374.11352539 C-91.10306641 375.75321289 -91.10306641 375.75321289 -91.19775391 377.42602539 C-91.77864622 382.04896005 -93.52344005 385.71560572 -95.53369141 389.88305664 C-97.3204995 393.79229023 -98.83213816 397.77141939 -100.32275391 401.80102539 C-100.58918701 402.5209668 -100.85562012 403.2409082 -101.13012695 403.98266602 C-101.75989461 405.69182856 -102.38553033 407.40251271 -103.01025391 409.11352539 C-103.67025391 409.11352539 -104.33025391 409.11352539 -105.01025391 409.11352539 C-105.34025391 411.75352539 -105.67025391 414.39352539 -106.01025391 417.11352539 C-106.67025391 417.11352539 -107.33025391 417.11352539 -108.01025391 417.11352539 C-108.09275391 418.08290039 -108.17525391 419.05227539 -108.26025391 420.05102539 C-108.81171264 424.01513452 -110.32348569 427.22984684 -112.02197266 430.82446289 C-113.47158636 434.18206617 -114.23179209 437.54557542 -115.01025391 441.11352539 C-115.67025391 441.11352539 -116.33025391 441.11352539 -117.01025391 441.11352539 C-117.34025391 442.76352539 -117.67025391 444.41352539 -118.01025391 446.11352539 C-138.80025391 446.11352539 -159.59025391 446.11352539 -181.01025391 446.11352539 C-180.13095267 438.19981429 -179.78460068 436.24683889 -176.01025391 430.11352539 C-175.23539559 427.34213942 -175.23539559 427.34213942 -175.01025391 425.11352539 C-174.35025391 425.11352539 -173.69025391 425.11352539 -173.01025391 425.11352539 C-172.90712891 424.12352539 -172.80400391 423.13352539 -172.69775391 422.11352539 C-172.10216685 417.83055376 -170.62430364 414.11356168 -169.01025391 410.11352539 C-168.35025391 410.11352539 -167.69025391 410.11352539 -167.01025391 410.11352539 C-166.92775391 408.95852539 -166.84525391 407.80352539 -166.76025391 406.61352539 C-166.26842497 402.57197458 -164.9295461 399.62440742 -162.99853516 396.07836914 C-161.54000267 393.17859901 -160.79587189 390.25599731 -160.01025391 387.11352539 C-159.35025391 387.11352539 -158.69025391 387.11352539 -158.01025391 387.11352539 C-157.90197266 386.08227539 -157.79369141 385.05102539 -157.68212891 383.98852539 C-157.02119587 380.17663252 -155.99396802 377.54520693 -154.26025391 374.11352539 C-151.92536032 369.26499038 -150.01700139 364.47654831 -148.38525391 359.36352539 C-146.85878297 354.58519057 -145.16442912 350.01697404 -143.03759766 345.47290039 C-141.72772519 342.46467618 -140.65779013 339.39726582 -139.57275391 336.30102539 C-137.28719423 329.79382031 -134.72022947 323.45352994 -132.01025391 317.11352539 C-131.09038511 314.94821626 -130.17366578 312.78156621 -129.26025391 310.61352539 C-128.85291016 309.65446289 -128.44556641 308.69540039 -128.02587891 307.70727539 C-127.1648381 305.50830965 -126.5099667 303.41654956 -126.01025391 301.11352539 C-125.35025391 301.11352539 -124.69025391 301.11352539 -124.01025391 301.11352539 C-123.92775391 300.14415039 -123.84525391 299.17477539 -123.76025391 298.17602539 C-123.208845 294.33147994 -121.8215073 291.24444867 -120.17822266 287.75024414 C-118.29904026 283.50794275 -116.83901811 279.12217354 -115.30322266 274.74633789 C-113.66630578 270.14714546 -111.9127583 265.59805564 -110.14697266 261.04711914 C-108.73887445 257.41316122 -107.37079693 253.7655093 -106.01025391 250.11352539 C-105.35025391 250.11352539 -104.69025391 250.11352539 -104.01025391 250.11352539 C-103.91744141 248.75227539 -103.91744141 248.75227539 -103.82275391 247.36352539 C-103.16452855 242.69012539 -101.22411302 238.63634532 -99.35400391 234.33618164 C-97.27878647 229.35927937 -95.64053683 224.25028277 -94.01025391 219.11352539 C-93.35025391 219.11352539 -92.69025391 219.11352539 -92.01025391 219.11352539 C-91.92775391 218.32977539 -91.84525391 217.54602539 -91.76025391 216.73852539 C-90.92506255 212.70176714 -89.53243177 209.17579669 -87.94775391 205.38305664 C-87.23324293 203.65334464 -86.60206718 201.88896522 -86.01025391 200.11352539 C-85.35025391 200.11352539 -84.69025391 200.11352539 -84.01025391 200.11352539 C-83.68025391 197.80352539 -83.35025391 195.49352539 -83.01025391 193.11352539 C-82.35025391 193.11352539 -81.69025391 193.11352539 -81.01025391 193.11352539 C-80.90326172 192.12094727 -80.79626953 191.12836914 -80.68603516 190.10571289 C-80.08380821 185.91016333 -78.73808521 182.17124589 -77.19775391 178.23852539 C-76.79290771 177.18036621 -76.79290771 177.18036621 -76.37988281 176.10083008 C-74.70754855 171.77091036 -72.88639757 167.53613176 -70.94384766 163.32055664 C-69.38162162 159.62742816 -68.19450666 155.81274043 -66.95947266 152.00024414 C-65.75117374 148.32562316 -64.3986727 144.72341426 -63.01025391 141.11352539 C-62.35025391 141.11352539 -61.69025391 141.11352539 -61.01025391 141.11352539 C-60.90712891 140.14415039 -60.80400391 139.17477539 -60.69775391 138.17602539 C-60.06395511 133.627587 -58.56269564 129.41935435 -57.01025391 125.11352539 C-56.35025391 125.11352539 -55.69025391 125.11352539 -55.01025391 125.11352539 C-54.92775391 124.14415039 -54.84525391 123.17477539 -54.76025391 122.17602539 C-54.20282439 118.26616765 -52.78876144 115.06012839 -51.11962891 111.50415039 C-48.62294761 106.12397803 -46.52852245 100.5633104 -44.51025391 94.98852539 C-43.49459628 92.23015468 -42.30401998 89.65845942 -40.94775391 87.05102539 C-39.11559558 83.49732962 -38.09228505 79.96826134 -37.01025391 76.11352539 C-36.42712994 74.75016514 -35.82087716 73.3965744 -35.19775391 72.05102539 C-32.90677698 67.05330165 -31.11799849 61.91422099 -29.29541016 56.73071289 C-26.16614866 47.92312582 -22.70881427 39.26175003 -19.02587891 30.67211914 C-18.15758013 28.48467414 -17.50711475 26.40880648 -17.01025391 24.11352539 C-16.35025391 24.11352539 -15.69025391 24.11352539 -15.01025391 24.11352539 C-14.68025391 21.47352539 -14.35025391 18.83352539 -14.01025391 16.11352539 C-13.35025391 16.11352539 -12.69025391 16.11352539 -12.01025391 16.11352539 C-11.85556641 14.62852539 -11.85556641 14.62852539 -11.69775391 13.11352539 C-11.08240938 8.80611369 -9.73186938 5.10767329 -8.01025391 1.11352539 C-5.26360002 -0.25980155 -3.07401323 -0.00612353 0 0 Z " fill="#31AEFE" transform="translate(432.01025390625,87.886474609375)"/>
<path d="M0 0 C1.60712465 1.60712465 1.15151668 3.33958936 1.17700195 5.56396484 C1.19625481 7.0208522 1.19625481 7.0208522 1.21589661 8.50717163 C1.22328354 9.56441437 1.23067047 10.6216571 1.23828125 11.7109375 C1.246353 12.79001373 1.25442474 13.86908997 1.26274109 14.98086548 C1.27660002 17.26912825 1.28731404 19.55741186 1.29516602 21.84570312 C1.31239323 25.35326069 1.35626579 28.85987961 1.40039062 32.3671875 C1.41051561 34.58593054 1.41903232 36.80468162 1.42578125 39.0234375 C1.44328934 40.07663177 1.46079742 41.12982605 1.47883606 42.2149353 C1.47444771 43.68127914 1.47444771 43.68127914 1.4699707 45.17724609 C1.47583694 46.03804779 1.48170319 46.89884949 1.48774719 47.78573608 C1 50 1 50 -0.91218567 51.74380493 C-8.43713242 56.27141108 -17.42634778 58.59139084 -25.69140625 61.45019531 C-29.49670714 62.76661571 -33.29087748 64.09612752 -37.0546875 65.52734375 C-42.07896152 67.43017266 -47.18460466 69.07754965 -52.2890625 70.75 C-56.58029862 72.16566552 -60.82426637 73.66157289 -65.04785156 75.26757812 C-67.62854204 76.23582118 -70.23004261 77.13831989 -72.83398438 78.04174805 C-80.51661002 80.70769266 -88.11571882 83.54444228 -95.67138672 86.55175781 C-99.98677532 88.25953715 -104.32598205 89.81310654 -108.73681641 91.2565918 C-110.98697395 91.99572122 -113.22631207 92.76160012 -115.46484375 93.53515625 C-123.25984756 96.20660293 -130.83888717 98.68369148 -139 100 C-139 100.99 -139 101.98 -139 103 C-138.33355469 103.09796875 -137.66710937 103.1959375 -136.98046875 103.296875 C-130.96818661 104.2722942 -125.50926128 105.74260174 -119.828125 107.92578125 C-115.93365071 109.40503599 -111.97977275 110.68211601 -108.01953125 111.97265625 C-105.01117101 112.99619925 -102.04478693 114.10187302 -99.07299805 115.22583008 C-95.73340931 116.47301367 -92.36593444 117.63873417 -89 118.8125 C-83.44768466 120.75674918 -77.93135881 122.77180412 -72.4375 124.875 C-64.57695798 127.87518388 -56.59953874 130.50736173 -48.59936523 133.10888672 C-44.01804286 134.60944794 -39.50042306 136.16302967 -35.0390625 137.9921875 C-28.35232777 140.7267626 -21.45786916 142.83388882 -14.5703125 145 C-3.37078652 148.62921348 -3.37078652 148.62921348 1 153 C1.09839214 154.5293463 1.12798539 156.06319566 1.12939453 157.59570312 C1.13254669 158.57341675 1.13569885 159.55113037 1.13894653 160.55847168 C1.13591019 162.15374695 1.13591019 162.15374695 1.1328125 163.78125 C1.13376923 164.86506958 1.13472595 165.94888916 1.13571167 167.06555176 C1.13639365 169.3622239 1.13453811 171.65889795 1.13037109 173.95556641 C1.12502312 177.48474428 1.1303155 181.01379487 1.13671875 184.54296875 C1.13605797 186.76822945 1.13477682 188.99349007 1.1328125 191.21875 C1.13483673 192.28226685 1.13686096 193.34578369 1.13894653 194.44152832 C1.13421829 195.90809875 1.13421829 195.90809875 1.12939453 197.40429688 C1.12859894 198.26953979 1.12780334 199.13478271 1.12698364 200.02624512 C1 202 1 202 0 203 C-6.48507145 202.88818842 -11.55898162 201.14812262 -17.51098633 198.64404297 C-23.36372055 196.19823037 -29.3102739 194.11071392 -35.3125 192.0625 C-43.18397005 189.3666148 -50.95906768 186.51122389 -58.69213867 183.44262695 C-64.58548747 181.11978443 -70.54144936 179.08189159 -76.5703125 177.140625 C-80.4202588 175.86023284 -84.2084535 174.44123113 -88 173 C-89.82262397 172.31562622 -91.64556327 171.63209189 -93.46875 170.94921875 C-128 158 -128 158 -129.9296875 157.26977539 C-134.59719237 155.50754258 -139.28941881 153.8306095 -144 152.1875 C-153.79648357 148.74930587 -163.50764377 145.09646787 -173.20703125 141.39453125 C-179.69178326 138.9284988 -186.1542998 136.5593368 -192.828125 134.64453125 C-198.54999154 132.94649532 -203.6459318 130.6770341 -209 128 C-209 110.84 -209 93.68 -209 76 C-198.93437946 71.52639087 -198.93437946 71.52639087 -193.625 69.6875 C-187.87907033 67.66865984 -182.15210542 65.60597782 -176.4375 63.5 C-175.21957764 63.05116455 -175.21957764 63.05116455 -173.97705078 62.59326172 C-168.26897493 60.4831291 -162.58589576 58.31285917 -156.91015625 56.1171875 C-150.30503441 53.58152999 -143.66052768 51.20384963 -136.9375 49 C-132.49539597 47.53256999 -128.16405906 45.90858729 -123.8359375 44.13671875 C-118.25426386 41.89943634 -112.60613383 39.83217397 -106.97021484 37.73608398 C-105.64096245 37.23946738 -104.31318618 36.73888415 -102.98681641 36.23461914 C-98.56784083 34.55758958 -94.1210708 33.024442 -89.625 31.5625 C-83.64845783 29.59315863 -77.8121638 27.40802017 -72 25 C-61.51335491 20.72534848 -50.94597583 16.73550234 -40.31054688 12.84814453 C-36.80489547 11.56130673 -33.30835584 10.25066412 -29.8125 8.9375 C-29.17143311 8.69821777 -28.53036621 8.45893555 -27.86987305 8.21240234 C-24.45454515 6.93515325 -21.05210556 5.63116038 -17.66015625 4.29296875 C-16.94303467 4.01396729 -16.22591309 3.73496582 -15.48706055 3.44750977 C-14.12199384 2.91590536 -12.75991117 2.37654459 -11.40161133 1.82788086 C-7.46312541 0.30480851 -4.21887689 -0.3674097 0 0 Z " fill="#28BFFE" transform="translate(225,209)"/>
<path d="M0 0 C4.31573137 1.52919616 8.50387273 3.27868515 12.72143555 5.06079102 C23.60110115 9.54531621 34.70905954 13.42423873 45.80273438 17.33789062 C52.59999984 19.74813594 59.32390678 22.27303656 66 25 C73.51450869 27.9693695 81.08248438 30.75326457 88.71044922 33.4152832 C96.92493143 36.29747853 105.07661277 39.34820797 113.23608398 42.38183594 C120.17560645 44.95991983 127.12257707 47.50634239 134.10546875 49.96484375 C136.26527864 50.7372454 138.41632708 51.53422863 140.5625 52.34375 C144.07568499 53.6673957 147.60667885 54.93520644 151.14453125 56.19140625 C152.23314453 56.57876953 153.32175781 56.96613281 154.44335938 57.36523438 C156.70802856 58.17001247 158.97367225 58.97205306 161.24023438 59.77148438 C162.32240234 60.15755859 163.40457031 60.54363281 164.51953125 60.94140625 C165.50026611 61.28888916 166.48100098 61.63637207 167.49145508 61.99438477 C170 63 170 63 173 65 C174.96538742 65.64758809 176.94733713 66.24560512 178.9375 66.8125 C195.8855 71.8855 195.8855 71.8855 200 76 C200.29193115 77.9085083 200.29193115 77.9085083 200.35058594 80.26269531 C200.37691101 81.14411194 200.40323608 82.02552856 200.43035889 82.93365479 C200.4481842 83.88882996 200.46600952 84.84400513 200.484375 85.828125 C200.5084845 86.80988708 200.53259399 87.79164917 200.55743408 88.80316162 C200.60579784 90.88445522 200.64917479 92.96586968 200.68798828 95.04736328 C200.74948748 98.22353066 200.83262158 101.39861336 200.91796875 104.57421875 C200.96225081 106.59632583 201.00526057 108.61846126 201.046875 110.640625 C201.08575836 112.06124237 201.08575836 112.06124237 201.12542725 113.51055908 C201.20033074 118.39270534 201.10088624 122.47585016 199 127 C196.828125 128.390625 196.828125 128.390625 194.25 129.25 C193.40953125 129.54390625 192.5690625 129.8378125 191.703125 130.140625 C190.36507812 130.56601562 190.36507812 130.56601562 189 131 C187.54980469 131.49113281 187.54980469 131.49113281 186.0703125 131.9921875 C182.93884174 133.02007485 179.78775766 133.94838093 176.625 134.875 C172.11001881 136.2504586 168.09082498 137.8349748 163.94921875 140.06640625 C160.92638881 141.51421458 157.75230613 142.32212134 154.53515625 143.234375 C152.14114788 143.9573729 149.87491114 144.80090604 147.5625 145.75 C135.17703807 150.83171059 122.50051251 155.19576508 109.85668945 159.58300781 C105.04170783 161.26133754 100.29517388 163.0363861 95.58203125 164.984375 C92.08886452 166.35838915 88.54482535 167.57996701 85 168.8125 C79.00998118 170.89754085 73.08589552 173.1062263 67.1875 175.4375 C58.252615 178.96290867 49.20470221 182.12462898 40.12792969 185.26269531 C26.01240531 190.15357228 11.37695643 195.31152178 -2 202 C-4.69013339 202.18704404 -7.29686177 202.08581391 -10 202 C-11.59499113 200.40500887 -11.13525407 198.73742954 -11.14526367 196.52783203 C-11.15164352 195.57659454 -11.15802338 194.62535706 -11.16459656 193.64529419 C-11.16570938 192.60992523 -11.1668222 191.57455627 -11.16796875 190.5078125 C-11.17129715 189.45093231 -11.17462555 188.39405212 -11.17805481 187.30514526 C-11.18312913 185.06394894 -11.18546298 182.82274503 -11.18530273 180.58154297 C-11.18748622 177.14668337 -11.20562848 173.71214632 -11.22460938 170.27734375 C-11.22754374 168.10416777 -11.22952825 165.93099026 -11.23046875 163.7578125 C-11.23765427 162.726492 -11.24483978 161.69517151 -11.25224304 160.63259888 C-11.24916641 159.67505707 -11.24608978 158.71751526 -11.24291992 157.73095703 C-11.24434494 156.88792023 -11.24576996 156.04488342 -11.24723816 155.17630005 C-11 153 -11 153 -9 150 C-3.50484032 147.12560878 2.58903602 145.48738431 8.5234375 143.76953125 C11.81107864 142.74797714 14.95693538 141.461365 18.140625 140.15625 C24.37512077 137.63519707 30.68666659 135.3148449 37 133 C38.28511475 132.52796143 38.28511475 132.52796143 39.59619141 132.04638672 C42.28980129 131.06260394 44.98781977 130.09198712 47.6875 129.125 C48.96149658 128.65936646 48.96149658 128.65936646 50.26123047 128.18432617 C54.27562083 126.76164166 57.670992 125.55916416 62 126 C62 125.34 62 124.68 62 124 C68.27595204 121.81148049 74.55246582 119.62457765 80.8293457 117.4387207 C82.95805161 116.697218 85.08663559 115.95536513 87.21508789 115.21313477 C107.57545203 108.1135768 107.57545203 108.1135768 116.6875 105.03125 C117.80640625 104.65162109 118.9253125 104.27199219 120.078125 103.88085938 C123.75260822 102.77311076 127.176456 102.23409453 131 102 C131 101.01 131 100.02 131 99 C129.74058594 98.91105469 128.48117187 98.82210937 127.18359375 98.73046875 C121.49031015 98.09343467 116.41631533 96.28111463 111.0625 94.3125 C109.02903864 93.58353873 106.99517923 92.85568696 104.9609375 92.12890625 C103.45611816 91.5877417 103.45611816 91.5877417 101.92089844 91.03564453 C97.01357424 89.29568555 92.06586901 87.67989294 87.11157227 86.0793457 C83.57669644 84.92084253 80.12571992 83.65905482 76.6875 82.23828125 C67.69106959 78.58868018 58.40944123 75.66334008 49.21411133 72.56079102 C46.69014354 71.70816053 44.16731926 70.85220747 41.64453125 69.99609375 C40.88082718 69.73976669 40.11712311 69.48343964 39.33027649 69.21934509 C34.78210323 67.67535143 30.40225836 65.91974351 26 64 C23.86447763 63.30100832 21.71841198 62.63331564 19.5625 62 C15.3238152 60.72404471 11.15742155 59.39839997 7.0390625 57.77734375 C5.44362801 57.16912256 3.83007374 56.60838603 2.2109375 56.06640625 C1.23382812 55.73511719 0.25671875 55.40382813 -0.75 55.0625 C-1.65234375 54.76472656 -2.5546875 54.46695313 -3.484375 54.16015625 C-6.97582321 52.54996973 -9.27659949 50.44680102 -11 47 C-11.08977728 45.48835608 -11.11757433 43.97279821 -11.11352539 42.45849609 C-11.11344986 41.51767181 -11.11337433 40.57684753 -11.11329651 39.60751343 C-11.10555458 38.08089584 -11.10555458 38.08089584 -11.09765625 36.5234375 C-11.0962413 35.48305328 -11.09482635 34.44266907 -11.09336853 33.37075806 C-11.08775866 30.03880979 -11.07520447 26.70692805 -11.0625 23.375 C-11.05748627 21.11979264 -11.05292314 18.86458422 -11.04882812 16.609375 C-11.03778603 11.07289386 -11.02103827 5.53645168 -11 0 C-7.42934676 -1.78532662 -3.75308682 -0.83005855 0 0 Z " fill="#429FFE" transform="translate(524,210)"/>
<path d="M0 0 C0.66 0 1.32 0 2 0 C1.31163997 4.22885515 -0.06474937 8.06149166 -1.6328125 12.02734375 C-2.03521904 13.05933144 -2.03521904 13.05933144 -2.445755 14.11216736 C-3.33479565 16.38888223 -4.2298203 18.66319267 -5.125 20.9375 C-5.75688989 22.55147838 -6.38847605 24.1655757 -7.01977539 25.77978516 C-9.0068411 30.85569116 -11.00269218 35.92811706 -13 41 C-13.31487366 41.80008484 -13.62974731 42.60016968 -13.9541626 43.42449951 C-17.68114149 52.89461201 -21.41847532 62.36060901 -25.16204834 71.82417297 C-28.29932617 79.75518829 -31.43074402 87.68851202 -34.56158447 95.62207031 C-36.13334317 99.60488128 -37.70530775 103.58761098 -39.27734375 107.5703125 C-39.58816895 108.3577887 -39.89899414 109.14526489 -40.21923828 109.956604 C-42.02285626 114.5257147 -43.82738027 119.09446615 -45.63278198 123.66287231 C-56.21916736 150.45093335 -66.75131656 177.26022848 -77.27929688 204.07128906 C-77.71975342 205.19297485 -78.16020996 206.31466064 -78.61401367 207.47033691 C-79.57839259 209.92630102 -80.54274703 212.38227472 -81.50708008 214.83825684 C-82.77588893 218.06963272 -84.04487047 221.30094074 -85.31395721 224.53220749 C-86.02942269 226.35399864 -86.74472438 228.17585411 -87.46002197 229.99771118 C-87.89441589 231.10367645 -88.32880981 232.20964172 -88.77636719 233.34912109 C-89.15831238 234.32174896 -89.54025757 235.29437683 -89.93377686 236.29647827 C-90.94775478 238.8675267 -91.97356047 241.43390118 -93 244 C-73.2 244 -53.4 244 -33 244 C-32.01 240.7 -31.02 237.4 -30 234 C-29.20705771 231.83882848 -28.38416137 229.68819039 -27.51953125 227.5546875 C-27.07802734 226.45898438 -26.63652344 225.36328125 -26.18164062 224.234375 C-25.72982422 223.12578125 -25.27800781 222.0171875 -24.8125 220.875 C-24.34908203 219.72773438 -23.88566406 218.58046875 -23.40820312 217.3984375 C-22.27608834 214.59732875 -21.13995466 211.79792518 -20 209 C-19.67 209 -19.34 209 -19 209 C-19.495 212.96 -19.495 212.96 -20 217 C-20.66 217 -21.32 217 -22 217 C-22.0825 217.969375 -22.165 218.93875 -22.25 219.9375 C-22.80145873 223.90160913 -24.31323178 227.11632145 -26.01171875 230.7109375 C-27.46133245 234.06854078 -28.22153819 237.43205003 -29 241 C-29.66 241 -30.32 241 -31 241 C-31.33 242.65 -31.66 244.3 -32 246 C-52.79 246 -73.58 246 -95 246 C-94.12069877 238.0862889 -93.77434677 236.1333135 -90 230 C-89.22514168 227.22861403 -89.22514168 227.22861403 -89 225 C-88.34 225 -87.68 225 -87 225 C-86.896875 224.01 -86.79375 223.02 -86.6875 222 C-86.09191294 217.71702837 -84.61404973 214.00003629 -83 210 C-82.34 210 -81.68 210 -81 210 C-80.9175 208.845 -80.835 207.69 -80.75 206.5 C-80.25817106 202.45844919 -78.91929219 199.51088203 -76.98828125 195.96484375 C-75.52974876 193.06507362 -74.78561798 190.14247192 -74 187 C-73.34 187 -72.68 187 -72 187 C-71.89171875 185.96875 -71.7834375 184.9375 -71.671875 183.875 C-71.01094196 180.06310713 -69.98371411 177.43168154 -68.25 174 C-65.91510641 169.15146498 -64.00674748 164.36302292 -62.375 159.25 C-60.84852906 154.47166518 -59.15417521 149.90344865 -57.02734375 145.359375 C-55.71747129 142.35115079 -54.64753622 139.28374043 -53.5625 136.1875 C-51.27694032 129.68029492 -48.70997556 123.34000455 -46 117 C-45.08013121 114.83469087 -44.16341187 112.66804082 -43.25 110.5 C-42.84265625 109.5409375 -42.4353125 108.581875 -42.015625 107.59375 C-41.1545842 105.39478426 -40.49971279 103.30302417 -40 101 C-39.34 101 -38.68 101 -38 101 C-37.9175 100.030625 -37.835 99.06125 -37.75 98.0625 C-37.19859109 94.21795454 -35.81125339 91.13092328 -34.16796875 87.63671875 C-32.28878636 83.39441736 -30.8287642 79.00864815 -29.29296875 74.6328125 C-27.65605187 70.03362007 -25.90250439 65.48453025 -24.13671875 60.93359375 C-22.72862054 57.29963583 -21.36054303 53.65198391 -20 50 C-19.34 50 -18.68 50 -18 50 C-17.9071875 48.63875 -17.9071875 48.63875 -17.8125 47.25 C-17.15427465 42.5766 -15.21385911 38.52281993 -13.34375 34.22265625 C-11.26853257 29.24575398 -9.63028293 24.13675738 -8 19 C-7.34 19 -6.68 19 -6 19 C-5.9175 18.21625 -5.835 17.4325 -5.75 16.625 C-4.91480864 12.58824175 -3.52217787 9.0622713 -1.9375 5.26953125 C-1.22298902 3.53981925 -0.59181328 1.77543983 0 0 Z " fill="#F6FAFE" transform="translate(346,288)"/>
<path d="M0 0 C1.26115631 0.00007553 2.52231262 0.00015106 3.82168579 0.00022888 C5.20322712 0.0053359 6.58476806 0.0105519 7.96630859 0.01586914 C9.37592519 0.01773395 10.78554244 0.01915756 12.19515991 0.02015686 C15.90728542 0.02397706 19.61937187 0.03380311 23.33148193 0.04486084 C27.11860628 0.05508564 30.90573693 0.05965677 34.69287109 0.06469727 C42.12518058 0.07542581 49.55745786 0.09249628 56.98974609 0.11352539 C56.98974609 1.76352539 56.98974609 3.41352539 56.98974609 5.11352539 C56.32974609 5.11352539 55.66974609 5.11352539 54.98974609 5.11352539 C54.65974609 7.42352539 54.32974609 9.73352539 53.98974609 12.11352539 C53.32974609 12.11352539 52.66974609 12.11352539 51.98974609 12.11352539 C52.03615234 12.83282227 52.08255859 13.55211914 52.13037109 14.29321289 C51.97066453 17.49621666 51.15810074 19.37618319 49.73974609 22.23852539 C47.11138458 27.75511468 45.01893571 33.35548307 42.98974609 39.11352539 C42.0008134 41.7844889 40.99531607 44.44876495 39.98974609 47.11352539 C39.32974609 47.11352539 38.66974609 47.11352539 37.98974609 47.11352539 C37.89693359 48.75321289 37.89693359 48.75321289 37.80224609 50.42602539 C37.22135378 55.04896005 35.47655995 58.71560572 33.46630859 62.88305664 C31.6795005 66.79229023 30.16786184 70.77141939 28.67724609 74.80102539 C28.41081299 75.5209668 28.14437988 76.2409082 27.86987305 76.98266602 C27.24010539 78.69182856 26.61446967 80.40251271 25.98974609 82.11352539 C25.32974609 82.11352539 24.66974609 82.11352539 23.98974609 82.11352539 C24.68080544 77.8867206 26.03091735 74.1412108 27.58740234 70.15649414 C27.85361893 69.47224869 28.11983551 68.78800323 28.39411926 68.08302307 C29.27590456 65.82066851 30.16390198 63.56081178 31.05224609 61.30102539 C31.67042319 59.72003943 32.2884213 58.13898347 32.90625 56.55786133 C40.15779164 38.03283895 47.57903905 19.57528681 54.98974609 1.11352539 C35.18974609 1.11352539 15.38974609 1.11352539 -5.01025391 1.11352539 C-6.00025391 4.08352539 -6.99025391 7.05352539 -8.01025391 10.11352539 C-8.55874186 11.61343644 -9.11870203 13.10933835 -9.70166016 14.59619141 C-10.00126648 15.36352097 -10.3008728 16.13085052 -10.60955811 16.9214325 C-10.92741272 17.72861221 -11.24526733 18.53579193 -11.57275391 19.36743164 C-11.91590637 20.24401932 -12.25905884 21.12060699 -12.61260986 22.02375793 C-13.74282207 24.90876915 -14.87645297 27.79242284 -16.01025391 30.67602539 C-16.81733154 32.73343609 -17.62429541 34.79089141 -18.43115234 36.84838867 C-24.78832973 53.04827236 -31.19320816 69.22922881 -37.60644531 85.40698242 C-46.20156894 107.09389231 -54.72125462 128.81036293 -63.24502563 150.52539062 C-67.11798983 160.39090609 -70.99909966 170.253199 -74.88525391 180.11352539 C-75.29574982 181.15511307 -75.29574982 181.15511307 -75.71453857 182.21774292 C-77.14604851 185.84982628 -78.57792817 189.48176367 -80.01025391 193.11352539 C-80.34025391 193.11352539 -80.67025391 193.11352539 -81.01025391 193.11352539 C-80.43503108 187.77712087 -79.15081345 183.22500931 -77.19775391 178.23852539 C-76.79290771 177.18036621 -76.79290771 177.18036621 -76.37988281 176.10083008 C-74.70754855 171.77091036 -72.88639757 167.53613176 -70.94384766 163.32055664 C-69.38162162 159.62742816 -68.19450666 155.81274043 -66.95947266 152.00024414 C-65.75117374 148.32562316 -64.3986727 144.72341426 -63.01025391 141.11352539 C-62.35025391 141.11352539 -61.69025391 141.11352539 -61.01025391 141.11352539 C-60.90712891 140.14415039 -60.80400391 139.17477539 -60.69775391 138.17602539 C-60.06395511 133.627587 -58.56269564 129.41935435 -57.01025391 125.11352539 C-56.35025391 125.11352539 -55.69025391 125.11352539 -55.01025391 125.11352539 C-54.92775391 124.14415039 -54.84525391 123.17477539 -54.76025391 122.17602539 C-54.20282439 118.26616765 -52.78876144 115.06012839 -51.11962891 111.50415039 C-48.62294761 106.12397803 -46.52852245 100.5633104 -44.51025391 94.98852539 C-43.49459628 92.23015468 -42.30401998 89.65845942 -40.94775391 87.05102539 C-39.11559558 83.49732962 -38.09228505 79.96826134 -37.01025391 76.11352539 C-36.42712994 74.75016514 -35.82087716 73.3965744 -35.19775391 72.05102539 C-32.90677698 67.05330165 -31.11799849 61.91422099 -29.29541016 56.73071289 C-26.16614866 47.92312582 -22.70881427 39.26175003 -19.02587891 30.67211914 C-18.15758013 28.48467414 -17.50711475 26.40880648 -17.01025391 24.11352539 C-16.35025391 24.11352539 -15.69025391 24.11352539 -15.01025391 24.11352539 C-14.68025391 21.47352539 -14.35025391 18.83352539 -14.01025391 16.11352539 C-13.35025391 16.11352539 -12.69025391 16.11352539 -12.01025391 16.11352539 C-11.90712891 15.12352539 -11.80400391 14.13352539 -11.69775391 13.11352539 C-11.08240938 8.80611369 -9.73186938 5.10767329 -8.01025391 1.11352539 C-5.26360002 -0.25980155 -3.07401323 -0.00612353 0 0 Z " fill="#F5FBFE" transform="translate(432.01025390625,87.886474609375)"/>
<path d="M0 0 C7.22237429 2.41716559 11.99132189 8.63384976 15.375 15.1875 C17.60041035 20.66182166 17.97871176 26.18678961 17 32 C14.8125 35.3125 14.8125 35.3125 12 37 C6.85517214 37.4171482 2.79020763 33.0491487 -1 30 C-1.886875 29.34 -2.77375 28.68 -3.6875 28 C-10.79896239 21.84954604 -10.79896239 21.84954604 -11.3125 17.125 C-11.209375 16.42375 -11.10625 15.7225 -11 15 C-9.68 14.67 -8.36 14.34 -7 14 C-6.29875 14.80824219 -5.5975 15.61648438 -4.875 16.44921875 C0.31682312 22.33187821 4.9717479 27.28696115 12 31 C11.11515534 21.98373802 9.36236819 14.64902563 2.296875 8.5234375 C-0.86212346 6.43166825 -3.03644477 6.00059746 -6.8125 6.0625 C-10.2693409 6.70881183 -10.2693409 6.70881183 -12 10 C-12.42203956 12.93560139 -12.42203956 12.93560139 -12.5625 16.125 C-12.90191083 21.90191083 -12.90191083 21.90191083 -14 23 C-15.66617115 23.04063832 -17.33388095 23.042721 -19 23 C-19.40543591 15.43186303 -18.28041577 9.56599618 -13.4375 3.5625 C-9.35727843 -0.7269637 -5.69175172 -0.65530036 0 0 Z " fill="#EEF8FD" transform="translate(327,393)"/>
<path d="M0 0 C5.21733886 2.71301621 9.34961922 6.69923844 12 12 C12.65986125 16.79813395 12.64864354 20.01720676 9.9375 24.125 C7 26 7 26 3.5625 26.0625 C-2.41302239 24.28032666 -6.63484595 21.23160624 -10.08203125 16.06640625 C-11.83776486 12.11413783 -11.77465322 8.2021283 -11 4 C-8.24389282 -0.63026005 -5.11474069 -0.70548147 0 0 Z " fill="#F0F9FD" transform="translate(371,304)"/>
<path d="M0 0 C4.31573137 1.52919616 8.50387273 3.27868515 12.72143555 5.06079102 C23.60110115 9.54531621 34.70905954 13.42423873 45.80273438 17.33789062 C52.59999984 19.74813594 59.32390678 22.27303656 66 25 C73.51450869 27.9693695 81.08248438 30.75326457 88.71044922 33.4152832 C96.92493143 36.29747853 105.07661277 39.34820797 113.23608398 42.38183594 C120.17560645 44.95991983 127.12257707 47.50634239 134.10546875 49.96484375 C136.26570279 50.73739709 138.41668353 51.53591647 140.5625 52.34765625 C144.07188387 53.67070272 147.60367304 54.91997773 151.14453125 56.15625 C152.23314453 56.53910156 153.32175781 56.92195313 154.44335938 57.31640625 C156.70684697 58.11157929 158.97252071 58.90055416 161.24023438 59.68359375 C162.32240234 60.06644531 163.40457031 60.44929688 164.51953125 60.84375 C165.50026611 61.18599609 166.48100098 61.52824219 167.49145508 61.88085938 C169.93964825 62.97307519 171.2829776 63.97477553 173 66 C165.40234587 64.60043213 158.37010606 62.06077387 151.16976929 59.32434082 C147.30150325 57.85470549 143.42532807 56.40610099 139.55078125 54.953125 C138.7133992 54.63841248 137.87601715 54.32369995 137.01325989 53.99945068 C127.45782366 50.41156472 117.87459743 46.8998457 108.29116821 43.38757324 C103.05542186 41.4685392 97.82061461 39.54694848 92.5859375 37.625 C91.54027115 37.24108093 90.4946048 36.85716187 89.41725159 36.46160889 C76.48086104 31.71004411 63.55488429 26.93031788 50.63012695 22.1472168 C41.36305748 18.71820444 32.09331157 15.29685489 22.81640625 11.89453125 C21.03669283 11.2412372 19.25698885 10.58791745 17.47729492 9.93457031 C14.15935484 8.7165789 10.84036184 7.5015177 7.52075195 6.28808594 C6.04243706 5.74556099 4.56416309 5.20292448 3.0859375 4.66015625 C2.42159195 4.41828079 1.7572464 4.17640533 1.07276917 3.92720032 C-2.0753407 2.76843582 -4.98913372 1.50543314 -8 0 C-7.67 16.83 -7.34 33.66 -7 51 C-7.66 51 -8.32 51 -9 51 C-10.77179727 47.94105397 -11.24597983 45.75224865 -11.22705078 42.23144531 C-11.22689972 41.29077209 -11.22674866 40.35009888 -11.22659302 39.38092041 C-11.21627045 38.37349792 -11.20594788 37.36607544 -11.1953125 36.328125 C-11.1924826 35.29057068 -11.18965271 34.25301636 -11.18673706 33.184021 C-11.17554865 29.87256299 -11.15044627 26.56137616 -11.125 23.25 C-11.11496848 21.00391016 -11.10584293 18.75781607 -11.09765625 16.51171875 C-11.0756137 11.00772009 -11.04214932 5.50387942 -11 0 C-7.42934676 -1.78532662 -3.75308682 -0.83005855 0 0 Z " fill="#E2F2FE" transform="translate(524,210)"/>
<path d="M0 0 C0.33 0 0.66 0 1 0 C0.67 2.64 0.34 5.28 0 8 C-0.66 8 -1.32 8 -2 8 C-2.0825 8.969375 -2.165 9.93875 -2.25 10.9375 C-2.92198753 15.68941182 -4.95149317 19.70350627 -7 24 C-8.64239915 27.67897409 -10.13522709 31.32536616 -11.37109375 35.15625 C-13.170901 40.60611292 -15.27487007 45.91845049 -17.39453125 51.25 C-19.44245487 56.44649342 -21.2847047 61.68446951 -23 67 C-23.66 67 -24.32 67 -25 67 C-25.0928125 68.36125 -25.0928125 68.36125 -25.1875 69.75 C-25.85116129 74.45251427 -27.79136659 78.55049466 -29.671875 82.87890625 C-30.90982397 85.78808633 -32.00921271 88.70736571 -33.0625 91.6875 C-34.56298153 95.90836673 -36.26563872 99.97257656 -38.16796875 104.02734375 C-39.00014434 106.00034222 -39.53762662 107.91231411 -40 110 C-40.66 110 -41.32 110 -42 110 C-42.33 112.31 -42.66 114.62 -43 117 C-43.66 117 -44.32 117 -45 117 C-45.0825 117.94875 -45.165 118.8975 -45.25 119.875 C-45.83391078 123.929936 -47.2476944 127.42929429 -48.828125 131.19140625 C-50.12143109 134.29102985 -51.31230407 137.42097095 -52.5 140.5625 C-53.92918392 144.29935704 -55.40210537 147.98515451 -57.0625 151.625 C-60.64405223 159.5101916 -63.31887503 167.77382112 -66 176 C-66.66 176 -67.32 176 -68 176 C-68.33 178.31 -68.66 180.62 -69 183 C-69.66 183 -70.32 183 -71 183 C-71.061875 184.093125 -71.12375 185.18625 -71.1875 186.3125 C-71.76839231 190.93543466 -73.51318614 194.60208033 -75.5234375 198.76953125 C-77.3102456 202.67876484 -78.82188425 206.657894 -80.3125 210.6875 C-80.57893311 211.40744141 -80.84536621 212.12738281 -81.11987305 212.86914062 C-81.74964071 214.57830317 -82.37527643 216.28898732 -83 218 C-83.66 218 -84.32 218 -85 218 C-84.29306322 213.50621313 -82.73592907 209.43774786 -81.0703125 205.23046875 C-80.768405 204.45838577 -80.4664975 203.6863028 -80.15544128 202.89082336 C-79.14938832 200.32142237 -78.13726655 197.75445874 -77.125 195.1875 C-76.41011744 193.36599644 -75.69552389 191.54437943 -74.98120117 189.72265625 C-67.84796701 171.5487925 -60.65206649 153.3994635 -53.45703125 135.25 C-49.79203269 126.00495644 -46.14058886 116.75467874 -42.5 107.5 C-36.82150721 93.06732701 -31.11340374 78.64642834 -25.40286255 64.22640991 C-19.10590079 48.32540122 -12.81905049 32.42044044 -6.54345703 16.51098633 C-6.24920334 15.76510254 -5.95494965 15.01921875 -5.65177917 14.25073242 C-5.11057316 12.8787905 -4.56947674 11.50680534 -4.02851868 10.13476562 C-2.69452891 6.75292872 -1.35341226 3.37411248 0 0 Z " fill="#E9F6FE" transform="translate(412,279)"/>
<path d="M0 0 C3.10056084 1.66953276 5.33262518 3.1004948 7.4375 5.9375 C8.15660708 8.57422596 7.72355095 10.39521657 7 13 C5.68 13.33 4.36 13.66 3 14 C2.75765625 13.43410156 2.5153125 12.86820312 2.265625 12.28515625 C1.93046875 11.55167969 1.5953125 10.81820313 1.25 10.0625 C0.92515625 9.33160156 0.6003125 8.60070312 0.265625 7.84765625 C-0.86169372 5.81193356 -0.86169372 5.81193356 -3.140625 5.24609375 C-3.75421875 5.16488281 -4.3678125 5.08367187 -5 5 C-5.96197328 10.41109968 -4.62223754 13.11848918 -1.5 17.625 C2.38756136 22.60958044 6.49992528 27.36811095 13.05859375 28.2890625 C15.18081888 28.35209446 15.18081888 28.35209446 18 28 C18.5745952 24.26513121 19 20.78706732 19 17 C20.65 17.33 22.3 17.66 24 18 C24.68862988 27.67907548 24.68862988 27.67907548 22.125 31.5625 C20.03350887 33.96156336 19.20228665 34.82539405 16.1171875 35.2734375 C8.30926819 35.62710632 4.01951507 32.66840867 -1.6875 27.625 C-7.84198975 20.63882245 -10.40269502 15.79469165 -10.27734375 6.3515625 C-10 4 -10 4 -8.375 1.375 C-5.23293289 -0.44409148 -3.58802607 -0.57408417 0 0 Z " fill="#EFF9FD" transform="translate(351,318)"/>
<path d="M0 0 C3.82897597 1.02671188 5.22343456 2.43989914 7.86328125 5.3515625 C10.99318438 8.88825391 10.99318438 8.88825391 15.17578125 10.8515625 C15.17578125 9.5315625 15.17578125 8.2115625 15.17578125 6.8515625 C16.49578125 7.5115625 17.81578125 8.1715625 19.17578125 8.8515625 C19.30078125 11.7265625 19.30078125 11.7265625 19.17578125 14.8515625 C17.17578125 16.8515625 17.17578125 16.8515625 14.37890625 17.25390625 C10.25997431 16.73652821 8.85738988 15.29621147 5.92578125 12.4140625 C2.82188149 9.25186391 2.82188149 9.25186391 -0.82421875 6.8515625 C0.370254 9.23444469 1.5804735 11.60694672 2.80078125 13.9765625 C3.13207031 14.64171875 3.46335937 15.306875 3.8046875 15.9921875 C6.30997124 20.81367697 9.17477894 24.17155751 13.17578125 27.8515625 C12.51578125 29.1715625 11.85578125 30.4915625 11.17578125 31.8515625 C7.12684073 31.32584585 5.3564715 29.31506742 2.61328125 26.4140625 C-1.33409201 22.26699077 -4.07056433 19.78458754 -9.82421875 18.8515625 C-9.86693975 17.18544345 -9.86485707 15.51773365 -9.82421875 13.8515625 C-8.82421875 12.8515625 -8.82421875 12.8515625 -6.32421875 12.7890625 C-5.49921875 12.8096875 -4.67421875 12.8303125 -3.82421875 12.8515625 C-3.49421875 12.8515625 -3.16421875 12.8515625 -2.82421875 12.8515625 C-3.56671875 11.76875 -3.56671875 11.76875 -4.32421875 10.6640625 C-5.93011582 7.6530055 -6.35224088 6.19570265 -5.82421875 2.8515625 C-4.11734276 0.00676919 -3.33076457 -0.17506093 0 0 Z " fill="#EEF9FD" transform="translate(376.82421875,277.1484375)"/>
<path d="M0 0 C4.95623078 0.80174322 7.76702506 4.61823982 11.01953125 8.15625 C12.77690345 10.25024299 12.77690345 10.25024299 14.9375 11.1875 C14.9375 9.8675 14.9375 8.5475 14.9375 7.1875 C16.2575 7.5175 17.5775 7.8475 18.9375 8.1875 C19.29825949 13.59889241 19.29825949 13.59889241 17.75 16.125 C15.9375 17.1875 15.9375 17.1875 13.578125 16.96484375 C10.56868551 16.07892887 9.14424302 14.95091191 6.875 12.8125 C4.32109268 10.43559616 1.7624627 8.23858651 -1.0625 6.1875 C2.26805759 13.38008713 5.59341743 19.33445718 10.9375 25.1875 C10.9375 25.8475 10.9375 26.5075 10.9375 27.1875 C11.5975 27.1875 12.2575 27.1875 12.9375 27.1875 C12.6075 28.5075 12.2775 29.8275 11.9375 31.1875 C5.82632377 30.65705432 2.89170921 26.58118888 -1.24609375 22.4375 C-4.32207904 19.98012479 -6.18678706 19.46148265 -10.0625 19.1875 C-10.1875 16.8125 -10.1875 16.8125 -10.0625 14.1875 C-9.4025 13.5275 -8.7425 12.8675 -8.0625 12.1875 C-5.4375 12.5625 -5.4375 12.5625 -3.0625 13.1875 C-3.5575 12.135625 -3.5575 12.135625 -4.0625 11.0625 C-5.16954461 7.87974674 -5.35998557 5.53421266 -5.0625 2.1875 C-3.0625 0.1875 -3.0625 0.1875 0 0 Z " fill="#EEF9FD" transform="translate(387.0625,250.8125)"/>
<path d="M0 0 C3.68169991 2.12720439 3.68169991 2.12720439 5 5 C5.42538985 9.69524049 5.28626329 14.29892061 5 19 C6.32 18.67 7.64 18.34 9 18 C9.33 14.7 9.66 11.4 10 8 C11.32 8.33 12.64 8.66 14 9 C15.5547669 12.10953379 15.28644437 14.56266761 15 18 C13.50254139 20.60847629 12.12971098 22.87028902 10 25 C5.4820154 25.38288005 2.93675721 25.44082692 -1.1875 23.5 C-5.30264961 19.84208924 -8.40567146 16.14735721 -9.44921875 10.62109375 C-9.63132465 6.80942883 -9.43770677 4.66466583 -7.3125 1.4375 C-4.46805723 -0.33066713 -3.28426353 -0.7209359 0 0 Z " fill="#EEF9FD" transform="translate(399,228)"/>
<path d="M0 0 C3.933406 1.03510684 5.11357309 1.76986628 7.5625 4.9375 C7.98828125 7.8828125 7.98828125 7.8828125 7.875 11.0625 C7.85050781 12.11695313 7.82601563 13.17140625 7.80078125 14.2578125 C7.5625 16.9375 7.5625 16.9375 6.5625 18.9375 C8.2125 18.6075 9.8625 18.2775 11.5625 17.9375 C11.5625 14.6375 11.5625 11.3375 11.5625 7.9375 C15.5625 8.9375 15.5625 8.9375 16.5625 9.9375 C17.23920661 14.5294377 17.31049973 18.64823316 14.5 22.5 C11.5625 24.9375 11.5625 24.9375 8.125 25.5625 C2.64605859 24.60128221 -0.7537597 22.03352799 -4.3125 17.875 C-7.33705306 13.3771969 -7.43564807 8.16114155 -6.4375 2.9375 C-4.29967634 -0.0376908 -3.82530981 -0.06955109 0 0 Z " fill="#EFF9FD" transform="translate(339.4375,375.0625)"/>
<path d="M0 0 C0.99 0.495 0.99 0.495 2 1 C2.02526838 7.96003447 2.04283222 14.9200572 2.05493164 21.88012695 C2.05997341 24.24992312 2.06680665 26.61971615 2.07543945 28.98950195 C2.0875119 32.38754039 2.09322971 35.78553785 2.09765625 39.18359375 C2.10281754 40.25024765 2.10797882 41.31690155 2.11329651 42.4158783 C2.11337204 43.39681961 2.11344757 44.37776093 2.11352539 45.38842773 C2.115746 46.25668686 2.11796661 47.12494598 2.12025452 48.01951599 C2 50 2 50 1 51 C-5.48507145 50.88818842 -10.55898162 49.14812262 -16.51098633 46.64404297 C-22.36372055 44.19823037 -28.3102739 42.11071392 -34.3125 40.0625 C-42.18397005 37.3666148 -49.95906768 34.51122389 -57.69213867 31.44262695 C-63.58548747 29.11978443 -69.54144936 27.08189159 -75.5703125 25.140625 C-79.4202588 23.86023284 -83.2084535 22.44123113 -87 21 C-88.82262397 20.31562622 -90.64556327 19.63209189 -92.46875 18.94921875 C-95.54097708 17.79754554 -98.61287977 16.6450435 -101.68383789 15.48999023 C-106.47825838 13.68791532 -111.27419164 11.89308498 -116.08984375 10.1484375 C-116.83363281 9.87684814 -117.57742187 9.60525879 -118.34375 9.32543945 C-119.70750399 8.82850251 -121.07331406 8.33716093 -122.44140625 7.85229492 C-126.88804746 6.22390507 -126.88804746 6.22390507 -128 4 C-124.29973451 4.65647835 -120.88802053 5.65092143 -117.34765625 6.90625 C-116.20353271 7.31117676 -115.05940918 7.71610352 -113.88061523 8.13330078 C-112.60780163 8.58856388 -111.33510081 9.0441424 -110.0625 9.5 C-109.06852707 9.85430084 -109.06852707 9.85430084 -108.05447388 10.21575928 C-90.38556241 16.51553685 -72.80446004 23.0567323 -55.21781921 29.58171082 C-43.52441021 33.92000043 -31.8244452 38.24052192 -20.125 42.5625 C-10.163125 46.2440625 -10.163125 46.2440625 0 50 C0 33.5 0 17 0 0 Z " fill="#F6FCFE" transform="translate(224,361)"/>
<path d="M0 0 C4.95210808 0.46718001 7.75742696 2.5109352 10.98828125 6.25390625 C14.42694456 10.71021693 16.45147199 13.99457858 16.5 19.75 C16.51417969 20.51183594 16.52835937 21.27367187 16.54296875 22.05859375 C16.27531713 24.67613586 15.87223777 26.18132677 14.3125 28.3125 C11.9375 29.26171875 11.9375 29.26171875 9.3125 29.3125 C7.25 28.01953125 7.25 28.01953125 5.3125 26.125 C4.62671875 25.47917969 3.9409375 24.83335937 3.234375 24.16796875 C2.60015625 23.55566406 1.9659375 22.94335938 1.3125 22.3125 C-2.70693519 18.8182345 -2.70693519 18.8182345 -7.6875 17.3125 C-7.730221 15.64638095 -7.72813832 13.97867115 -7.6875 12.3125 C-6.6875 11.3125 -6.6875 11.3125 -4.44140625 10.9453125 C-0.53589121 11.46604784 0.74719706 13.32006742 3.375 16.1875 C7.3074291 20.49233815 7.3074291 20.49233815 12.3125 23.3125 C12.1089787 17.51214282 11.21805459 14.01320357 7.2109375 9.72265625 C3.92732734 7.28359603 0.31021424 6.74780666 -3.6875 6.3125 C-3.730221 4.64638095 -3.72813832 2.97867115 -3.6875 1.3125 C-2.6875 0.3125 -2.6875 0.3125 0 0 Z " fill="#F0F9FD" transform="translate(346.6875,350.6875)"/>
<path d="M0 0 C-6.77684146 2.49049401 -13.55379015 4.98069606 -20.33081055 7.47070312 C-22.63226706 8.31634033 -24.93369977 9.16204232 -27.23510742 10.0078125 C-30.55901812 11.22934068 -33.88301673 12.45062937 -37.20703125 13.671875 C-38.72959282 14.23149933 -38.72959282 14.23149933 -40.28291321 14.8024292 C-41.26309921 15.16250061 -42.24328522 15.52257202 -43.25317383 15.89355469 C-44.52225334 16.35988312 -44.52225334 16.35988312 -45.81697083 16.83563232 C-50.54208707 18.56410301 -55.27158422 20.28057608 -60 22 C-60 38.17 -60 54.34 -60 71 C-43.92684467 77.05352603 -27.82590658 83.0259603 -11.70458984 88.94970703 C-1.78848624 92.59482458 8.11284149 96.27706806 18 100 C14.16451515 101.12919534 12.17037107 100.65940609 8.375 99.3125 C7.41335937 98.97863281 6.45171875 98.64476562 5.4609375 98.30078125 C2.73136741 97.27488188 0.03287306 96.20676854 -2.66796875 95.109375 C-9.25714462 92.456984 -15.97569975 90.2020653 -22.69726562 87.91210938 C-30.94166204 85.07998117 -30.94166204 85.07998117 -34.8984375 83.34765625 C-37.57301649 82.1855281 -40.13536022 81.28329365 -42.9375 80.5 C-49.68009193 78.53554226 -55.70051188 76.14974406 -62 73 C-62 55.84 -62 38.68 -62 21 C-51.93437946 16.52639087 -51.93437946 16.52639087 -46.625 14.6875 C-40.87906676 12.66865859 -35.15218463 10.60576851 -29.4375 8.5 C-28.63062744 8.20295166 -27.82375488 7.90590332 -26.99243164 7.59985352 C-21.1583021 5.44483011 -15.35351047 3.22393763 -9.56640625 0.9453125 C-3.67462039 -1.22487346 -3.67462039 -1.22487346 0 0 Z " fill="#F2FCFE" transform="translate(78,264)"/>
<path d="M0 0 C4.86888801 1.41640379 4.86888801 1.41640379 6.4375 4 C6.625 6.6875 6.625 6.6875 6.4375 9 C4.7875 9.33 3.1375 9.66 1.4375 10 C1.0353125 9.0409375 1.0353125 9.0409375 0.625 8.0625 C-0.44917752 5.66868314 -0.44917752 5.66868314 -3.5625 5 C-1.71928683 11.28860962 0.5217803 15.72499544 6.4375 19 C9.29695818 19.05050452 9.29695818 19.05050452 11.4375 18 C11.51177838 14.65747276 11.50296953 12.1964086 10.4375 9 C12.875 9.375 12.875 9.375 15.4375 10 C16.9922669 13.10953379 16.72394437 15.56266761 16.4375 19 C14.55805628 23.05959844 13.43785043 24.60770571 9.25 26.25 C3.76859062 25.89056332 0.42572957 23.69565674 -3.5625 20 C-6.37659509 16.26793806 -7.43709331 12.92487432 -8.0625 8.3125 C-7.24130355 2.87207353 -5.78443499 0 0 0 Z " fill="#EBF7FD" transform="translate(405.5625,206)"/>
<path d="M0 0 C0.66 0 1.32 0 2 0 C1.31163997 4.22885515 -0.06474937 8.06149166 -1.6328125 12.02734375 C-1.90108353 12.71533554 -2.16935455 13.40332733 -2.445755 14.11216736 C-3.33479565 16.38888223 -4.2298203 18.66319267 -5.125 20.9375 C-5.75688989 22.55147838 -6.38847605 24.1655757 -7.01977539 25.77978516 C-9.0068411 30.85569116 -11.00269218 35.92811706 -13 41 C-13.31487366 41.80008484 -13.62974731 42.60016968 -13.9541626 43.42449951 C-17.98380511 53.66366882 -22.02616117 63.89778868 -26.07373047 74.12988281 C-29.06372898 81.68860822 -32.05033918 89.24867148 -35.03591919 96.80914307 C-35.96157704 99.15272086 -36.88785658 101.49605215 -37.81420898 103.83935547 C-41.91248463 114.21219577 -45.96692124 124.60164421 -50 135 C-50.66 134.67 -51.32 134.34 -52 134 C-49.08079359 125.05604845 -45.78472416 116.3872941 -42.0859375 107.734375 C-41.19119391 105.48142351 -40.50651967 103.36375847 -40 101 C-39.34 101 -38.68 101 -38 101 C-37.9175 100.030625 -37.835 99.06125 -37.75 98.0625 C-37.19859109 94.21795454 -35.81125339 91.13092328 -34.16796875 87.63671875 C-32.28878636 83.39441736 -30.8287642 79.00864815 -29.29296875 74.6328125 C-27.65605187 70.03362007 -25.90250439 65.48453025 -24.13671875 60.93359375 C-22.72862054 57.29963583 -21.36054303 53.65198391 -20 50 C-19.34 50 -18.68 50 -18 50 C-17.9071875 48.63875 -17.9071875 48.63875 -17.8125 47.25 C-17.15427465 42.5766 -15.21385911 38.52281993 -13.34375 34.22265625 C-11.26853257 29.24575398 -9.63028293 24.13675738 -8 19 C-7.34 19 -6.68 19 -6 19 C-5.9175 18.21625 -5.835 17.4325 -5.75 16.625 C-4.91480864 12.58824175 -3.52217787 9.0622713 -1.9375 5.26953125 C-1.22298902 3.53981925 -0.59181328 1.77543983 0 0 Z " fill="#F6FBFE" transform="translate(346,288)"/>
<path d="M0 0 C0.99 0 1.98 0 3 0 C2.9071875 0.56847656 2.814375 1.13695312 2.71875 1.72265625 C2.36530091 5.50329922 2.22289665 7.99033288 4.60546875 11.0859375 C8.07051452 14.16742285 11.47290481 16.72675448 16 18 C16 15.69 16 13.38 16 11 C17.9375 11.375 17.9375 11.375 20 12 C21.40457737 14.80915474 21.24895157 16.88810534 21 20 C19.5 22.375 19.5 22.375 18 24 C11.68457622 23.86270818 8.32072815 21.37923625 3.4296875 17.49609375 C0.68001989 15.80297045 -0.83149296 15.68991479 -4 16 C-4.268125 14.906875 -4.53625 13.81375 -4.8125 12.6875 C-5.66536779 9.07795409 -5.66536779 9.07795409 -7.6875 7.3125 C-8.120625 6.879375 -8.55375 6.44625 -9 6 C-8.6875 3.8125 -8.6875 3.8125 -8 2 C-7.21625 2.165 -6.4325 2.33 -5.625 2.5 C-3.11791961 3.0623707 -3.11791961 3.0623707 -1 3 C-0.67 2.01 -0.34 1.02 0 0 Z " fill="#EAF8FD" transform="translate(409,185)"/>
<path d="M0 0 C-2.60197202 1.00605593 -5.20629362 2.00502525 -7.8125 3 C-8.91948242 3.42925781 -8.91948242 3.42925781 -10.04882812 3.8671875 C-10.76103516 4.13789063 -11.47324219 4.40859375 -12.20703125 4.6875 C-12.8616333 4.93886719 -13.51623535 5.19023437 -14.19067383 5.44921875 C-16 6 -16 6 -19 6 C-19 22.5 -19 39 -19 56 C-10.57441295 52.67420697 -10.57441295 52.67420697 -2.15698242 49.32788086 C-1.10873291 48.91932861 -0.0604834 48.51077637 1.01953125 48.08984375 C2.09307861 47.66566162 3.16662598 47.24147949 4.27270508 46.80444336 C7 46 7 46 10 47 C3.88119273 49.7658245 -2.28868192 52.38856227 -8.49609375 54.94921875 C-10.01718963 55.58755696 -11.52454526 56.26227263 -13 57 C-15.69013339 57.18704404 -18.29686177 57.08581391 -21 57 C-22.59499113 55.40500887 -22.13525407 53.73742954 -22.14526367 51.52783203 C-22.15164352 50.57659454 -22.15802338 49.62535706 -22.16459656 48.64529419 C-22.16570938 47.60992523 -22.1668222 46.57455627 -22.16796875 45.5078125 C-22.17129715 44.45093231 -22.17462555 43.39405212 -22.17805481 42.30514526 C-22.18312913 40.06394894 -22.18546298 37.82274503 -22.18530273 35.58154297 C-22.18748622 32.14668337 -22.20562848 28.71214632 -22.22460938 25.27734375 C-22.22754374 23.10416777 -22.22952825 20.93099026 -22.23046875 18.7578125 C-22.23765427 17.726492 -22.24483978 16.69517151 -22.25224304 15.63259888 C-22.24916641 14.67505707 -22.24608978 13.71751526 -22.24291992 12.73095703 C-22.24434494 11.88792023 -22.24576996 11.04488342 -22.24723816 10.17630005 C-22 8 -22 8 -20 5 C-17.828125 3.90234375 -17.828125 3.90234375 -15.25 2.9375 C-14.35539063 2.60234375 -13.46078125 2.2671875 -12.5390625 1.921875 C-11.28222656 1.46554687 -11.28222656 1.46554687 -10 1 C-8.88625 0.566875 -7.7725 0.13375 -6.625 -0.3125 C-3.83346058 -1.04361747 -2.69138789 -0.79596365 0 0 Z " fill="#F4FAFE" transform="translate(535,355)"/>
<path d="M0 0 C1 1 1 1 1.12025452 2.98048401 C1.11803391 3.84874313 1.11581329 4.71700226 1.11352539 5.61157227 C1.11341209 7.08298424 1.11341209 7.08298424 1.11329651 8.5841217 C1.10813522 9.6507756 1.10297394 10.7174295 1.09765625 11.81640625 C1.0962413 12.9025975 1.09482635 13.98878876 1.09336853 15.1078949 C1.08775048 18.59279075 1.07519492 22.07762342 1.0625 25.5625 C1.05748733 27.91861887 1.05292402 30.27473874 1.04882812 32.63085938 C1.03777519 38.42059464 1.02101951 44.21029281 1 50 C0.01 50.495 0.01 50.495 -1 51 C-1 34.5 -1 18 -1 1 C-17.60041742 7.08823566 -17.60041742 7.08823566 -34.125 13.375 C-39.94479255 15.62064417 -45.80601988 17.72619427 -51.69140625 19.79296875 C-55.50000494 21.1824103 -59.21363758 22.74398131 -62.9140625 24.3984375 C-65.33709252 25.09721395 -66.64762682 24.81960514 -69 24 C-59.58143953 19.92050375 -49.9978927 16.38017987 -40.35888672 12.86425781 C-36.83648739 11.57370786 -33.32410428 10.25707801 -29.8125 8.9375 C-29.1716748 8.69829834 -28.53084961 8.45909668 -27.87060547 8.21264648 C-24.45501882 6.93535311 -21.05234523 5.63125493 -17.66015625 4.29296875 C-16.94303467 4.01396729 -16.22591309 3.73496582 -15.48706055 3.44750977 C-14.12199384 2.91590536 -12.75991117 2.37654459 -11.40161133 1.82788086 C-7.46312541 0.30480851 -4.21887689 -0.3674097 0 0 Z " fill="#F9FDFE" transform="translate(225,209)"/>
<path d="M0 0 C20.79 0 41.58 0 63 0 C63 1.65 63 3.3 63 5 C62.34 5 61.68 5 61 5 C60.67 7.31 60.34 9.62 60 12 C59.34 12 58.68 12 58 12 C58.04640625 12.71929687 58.0928125 13.43859375 58.140625 14.1796875 C57.98091844 17.38269127 57.16835464 19.2626578 55.75 22.125 C53.12163848 27.64158929 51.02918961 33.24195768 49 39 C48.01106731 41.67096351 47.00556998 44.33523956 46 47 C45.34 47 44.68 47 44 47 C43.9071875 48.6396875 43.9071875 48.6396875 43.8125 50.3125 C43.23160769 54.93543466 41.48681386 58.60208033 39.4765625 62.76953125 C37.6897544 66.67876484 36.17811575 70.657894 34.6875 74.6875 C34.42106689 75.40744141 34.15463379 76.12738281 33.88012695 76.86914062 C33.25035929 78.57830317 32.62472357 80.28898732 32 82 C31.34 82 30.68 82 30 82 C30.69105935 77.77319521 32.04117126 74.02768541 33.59765625 70.04296875 C33.99698112 69.01660057 33.99698112 69.01660057 34.40437317 67.96949768 C35.28615846 65.70714312 36.17415589 63.44728639 37.0625 61.1875 C37.68067709 59.60651404 38.29867521 58.02545808 38.91650391 56.44433594 C46.16804555 37.91931356 53.58929295 19.46176142 61 1 C41.2 1 21.4 1 1 1 C0.67 1.66 0.34 2.32 0 3 C0 2.01 0 1.02 0 0 Z " fill="#E3F6FE" transform="translate(426,88)"/>
<path d="M0 0 C0.87840996 3.09720845 0.99435406 4.90645403 0 8 C-0.66 8 -1.32 8 -2 8 C-2.0928125 9.36125 -2.0928125 9.36125 -2.1875 10.75 C-2.85116129 15.45251427 -4.79136659 19.55049466 -6.671875 23.87890625 C-7.90982397 26.78808633 -9.00921271 29.70736571 -10.0625 32.6875 C-11.25269308 36.02864442 -12.52721855 39.2736344 -14 42.5 C-17.60906322 50.42578589 -20.30390038 58.72787618 -23 67 C-23.66 67 -24.32 67 -25 67 C-25.33 69.31 -25.66 71.62 -26 74 C-26.66 74 -27.32 74 -28 74 C-28.061875 75.0725 -28.12375 76.145 -28.1875 77.25 C-28.93154187 83.25548084 -31.53486755 88.52913588 -34 94 C-34.72935198 95.62491683 -35.45853806 97.24990815 -36.1875 98.875 C-36.50589844 99.58269531 -36.82429688 100.29039062 -37.15234375 101.01953125 C-38.26914346 103.62882827 -39.16571633 106.28857806 -40 109 C-40.66 109 -41.32 109 -42 109 C-41.35594306 105.27149429 -40.31733793 101.94137937 -38.9453125 98.41796875 C-38.50493652 97.28246582 -38.06456055 96.14696289 -37.61083984 94.97705078 C-37.11573694 93.71379778 -36.62045029 92.45061679 -36.125 91.1875 C-35.60217921 89.84626822 -35.0795622 88.50495699 -34.55712891 87.16357422 C-23.19747527 58.04735026 -11.65906272 28.99758965 0 0 Z " fill="#E7F6FE" transform="translate(455,170)"/>
<path d="M0 0 C0.33 0 0.66 0 1 0 C0.67 2.64 0.34 5.28 0 8 C-0.66 8 -1.32 8 -2 8 C-2.0825 8.969375 -2.165 9.93875 -2.25 10.9375 C-2.80145873 14.90160913 -4.31323178 18.11632145 -6.01171875 21.7109375 C-7.46133245 25.06854078 -8.22153819 28.43205003 -9 32 C-9.66 32 -10.32 32 -11 32 C-11.33 33.65 -11.66 35.3 -12 37 C-32.79 37 -53.58 37 -75 37 C-75 35.35 -75 33.7 -75 32 C-74.34 31.67 -73.68 31.34 -73 31 C-73 32.32 -73 33.64 -73 35 C-53.2 35 -33.4 35 -13 35 C-12.01 31.7 -11.02 28.4 -10 25 C-9.20705771 22.83882848 -8.38416137 20.68819039 -7.51953125 18.5546875 C-7.07802734 17.45898438 -6.63652344 16.36328125 -6.18164062 15.234375 C-5.50391602 13.57148438 -5.50391602 13.57148438 -4.8125 11.875 C-4.34908203 10.72773438 -3.88566406 9.58046875 -3.40820312 8.3984375 C-2.27608834 5.59732875 -1.13995466 2.79792518 0 0 Z " fill="#D5EBFE" transform="translate(326,497)"/>
<path d="M0 0 C8.39344735 0.48423735 20.84229982 3.84229982 27 10 C27.13238462 11.37897214 27.19871 12.76438868 27.23706055 14.14916992 C27.27666145 15.47140816 27.27666145 15.47140816 27.31706238 16.82035828 C27.35154228 18.26086296 27.35154228 18.26086296 27.38671875 19.73046875 C27.41224319 20.71364578 27.43776764 21.69682281 27.46406555 22.70979309 C27.51619385 24.79710589 27.56560595 26.88448798 27.61254883 28.97192383 C27.68678478 32.15681531 27.77755021 35.34095727 27.86914062 38.52539062 C27.91768784 40.55205913 27.96524545 42.57875163 28.01171875 44.60546875 C28.04077805 45.55568405 28.06983734 46.50589935 28.09977722 47.48490906 C28.19222199 52.38019614 28.1126527 56.46401039 26 61 C23.79296875 62.4609375 23.79296875 62.4609375 21.1875 63.375 C20.33542969 63.69210937 19.48335937 64.00921875 18.60546875 64.3359375 C15.9585218 65.01057166 13.71884225 65.12691185 11 65 C13.43414237 63.37723842 15.31319446 62.38255208 18 61.375 C19.0209375 60.98441406 19.0209375 60.98441406 20.0625 60.5859375 C22 60 22 60 25 60 C24.67 43.5 24.34 27 24 10 C16.08 7.03 8.16 4.06 0 1 C0 0.67 0 0.34 0 0 Z " fill="#CEE4FE" transform="translate(697,276)"/>
<path d="M0 0 C0.33 0.66 0.66 1.32 1 2 C-1.97 1.505 -1.97 1.505 -5 1 C-4.67 17.83 -4.34 34.66 -4 52 C-4.66 52 -5.32 52 -6 52 C-7.77179727 48.94105397 -8.24597983 46.75224865 -8.22705078 43.23144531 C-8.22689972 42.29077209 -8.22674866 41.35009888 -8.22659302 40.38092041 C-8.21627045 39.37349792 -8.20594788 38.36607544 -8.1953125 37.328125 C-8.1924826 36.29057068 -8.18965271 35.25301636 -8.18673706 34.184021 C-8.17554865 30.87256299 -8.15044627 27.56137616 -8.125 24.25 C-8.11496848 22.00391016 -8.10584293 19.75781607 -8.09765625 17.51171875 C-8.0756137 12.00772009 -8.04214932 6.50387942 -8 1 C-5.29120665 -0.35439668 -2.99066732 -0.06501451 0 0 Z " fill="#FBFEFE" transform="translate(521,209)"/>
<path d="M0 0 C6.38862827 0.45633059 9.61431642 3.45527085 13.875 8 C15.26797834 10.47640593 15.23311173 12.20265919 15 15 C14.01 15.33 13.02 15.66 12 16 C7.04756636 13.35870206 3.05005437 9.74452903 0 5 C-0.375 2.0625 -0.375 2.0625 0 0 Z " fill="#37B0FE" transform="translate(364,309)"/>
<path d="M0 0 C3.73976751 0.13850991 6.18616373 0.38240794 9.203125 2.671875 C11.5122196 5.66365843 11.47606627 7.38554801 11.375 11.125 C11.36210937 12.17945313 11.34921875 13.23390625 11.3359375 14.3203125 C11 17 11 17 9 19 C8.81824219 18.31292969 8.63648438 17.62585938 8.44921875 16.91796875 C8.07216797 15.56638672 8.07216797 15.56638672 7.6875 14.1875 C7.32205078 12.84751953 7.32205078 12.84751953 6.94921875 11.48046875 C5.96060117 8.89704421 5.15952787 7.69029712 3 6 C2.01 5.67 1.02 5.34 0 5 C-0.33 5.99 -0.66 6.98 -1 8 C-1.66 7.67 -2.32 7.34 -3 7 C-2.25 2.25 -2.25 2.25 0 0 Z " fill="#F0F9FD" transform="translate(336,375)"/>
<path d="M0 0 C6.13021052 1.24648518 12.01875308 2.85587424 17.9375 4.875 C18.71657715 5.13748535 19.4956543 5.3999707 20.29833984 5.67041016 C25.94380176 7.59139459 31.51436083 9.65688779 37 12 C33.15391272 13.45628548 30.57271455 12.50008201 26.75 11.25 C25.01363281 10.68539063 25.01363281 10.68539063 23.2421875 10.109375 C20.15521286 9.05310898 17.08839527 7.97548465 14.05078125 6.78515625 C12.41367043 6.15837668 10.76167698 5.57051415 9.10546875 4.99609375 C8.10128906 4.64675781 7.09710937 4.29742187 6.0625 3.9375 C5.12535156 3.61652344 4.18820312 3.29554688 3.22265625 2.96484375 C1 2 1 2 0 0 Z " fill="#F1F9FE" transform="translate(517,261)"/>
<path d="M0 0 C-4.64183898 2.51432945 -9.65982474 4.15697722 -14.61328125 5.94140625 C-15.98033203 6.43447266 -15.98033203 6.43447266 -17.375 6.9375 C-18.76525391 7.43636719 -18.76525391 7.43636719 -20.18359375 7.9453125 C-23.78047618 9.29227263 -27.29752435 10.80730486 -30.80859375 12.36328125 C-33.29727784 13.08637485 -34.58671356 12.85207152 -37 12 C-29.78138205 8.87337306 -22.48130741 5.9724842 -15.125 3.1875 C-14.31699951 2.87353271 -13.50899902 2.55956543 -12.67651367 2.23608398 C-8.28955625 0.59648649 -4.76332357 -0.3905619 0 0 Z " fill="#E5F8FE" transform="translate(193,221)"/>
<path d="M0 0 C0.33 0 0.66 0 1 0 C0.67 2.64 0.34 5.28 0 8 C-0.66 8 -1.32 8 -2 8 C-2.0825 8.969375 -2.165 9.93875 -2.25 10.9375 C-2.80145873 14.90160913 -4.31323178 18.11632145 -6.01171875 21.7109375 C-7.46133245 25.06854078 -8.22153819 28.43205003 -9 32 C-9.66 32 -10.32 32 -11 32 C-11.33 32.99 -11.66 33.98 -12 35 C-13 33 -13 33 -11.92016602 29.74365234 C-11.37267763 28.35459501 -10.81664092 26.96888851 -10.25390625 25.5859375 C-9.81896095 24.49147812 -9.81896095 24.49147812 -9.37522888 23.37490845 C-8.44485587 21.03865406 -7.50382552 18.70686011 -6.5625 16.375 C-5.93093555 14.79455241 -5.30006702 13.21382652 -4.66992188 11.6328125 C-3.12134658 7.75192966 -1.5631982 3.87501464 0 0 Z " fill="#E8F5FE" transform="translate(326,497)"/>
<path d="M0 0 C2.58148508 0.35606691 3.82045747 0.83328193 5.75 2.625 C7.43754802 5.83134123 7.20576047 8.43348514 7 12 C1.21538462 7.93846154 1.21538462 7.93846154 0.125 3.1875 C0.08375 2.135625 0.0425 1.08375 0 0 Z " fill="#45B9FE" transform="translate(394,233)"/>
<path d="M0 0 C-0.9178125 0.32613281 -1.835625 0.65226562 -2.78125 0.98828125 C-4.0084375 1.42527344 -5.235625 1.86226563 -6.5 2.3125 C-7.14493408 2.54179199 -7.78986816 2.77108398 -8.4543457 3.00732422 C-11.71667803 4.1707129 -14.96297883 5.36087954 -18.1875 6.625 C-23.00940085 8.46341536 -28.0100445 9.70664756 -33 11 C-32 9 -32 9 -28.97265625 7.8515625 C-27.67134921 7.43614072 -26.36780073 7.02769749 -25.0625 6.625 C-19.62485208 4.88857561 -14.3153047 3.01543065 -9.05078125 0.796875 C-5.45271388 -0.60123118 -3.75981492 -1.25327164 0 0 Z " fill="#EBF5FF" transform="translate(568,343)"/>
<path d="M0 0 C2.375 0.3125 2.375 0.3125 5 1 C7.4294516 4.6441774 7.16179575 6.71241272 7 11 C6.34 11 5.68 11 5 11 C3.7109375 9.609375 3.7109375 9.609375 2.375 7.75 C1.92898438 7.14671875 1.48296875 6.5434375 1.0234375 5.921875 C0 4 0 4 0 0 Z " fill="#45B1FE" transform="translate(336,380)"/>
<path d="M0 0 C0.66 0.33 1.32 0.66 2 1 C1.360625 1.474375 0.72125 1.94875 0.0625 2.4375 C-2.84850272 6.05420035 -2.80649782 9.47204894 -3 14 C-3.33 14 -3.66 14 -4 14 C-4.63019694 4.82713348 -4.63019694 4.82713348 -2 1.375 C-1.34 0.92125 -0.68 0.4675 0 0 Z " fill="#D8F0FE" transform="translate(364,304)"/>
</svg>
